<?xml version="1.0" encoding="UTF-8" standalone="no"?>
<svg
   xmlns:dc="http://purl.org/dc/elements/1.1/"
   xmlns:cc="http://creativecommons.org/ns#"
   xmlns:rdf="http://www.w3.org/1999/02/22-rdf-syntax-ns#"
   xmlns:svg="http://www.w3.org/2000/svg"
   xmlns="http://www.w3.org/2000/svg"
   xmlns:sodipodi="http://sodipodi.sourceforge.net/DTD/sodipodi-0.dtd"
   xmlns:inkscape="http://www.inkscape.org/namespaces/inkscape"
   sodipodi:docname="no_texture.svg"
   inkscape:version="1.0 (4035a4fb49, 2020-05-01)"
   id="svg8"
   version="1.1"
   viewBox="0 0 33.866666 33.866668"
   height="128"
   width="128">
  <defs
     id="defs2" />
  <sodipodi:namedview
     inkscape:window-maximized="0"
     inkscape:window-y="0"
     inkscape:window-x="623"
     inkscape:window-height="1368"
     inkscape:window-width="1928"
     fit-margin-bottom="0"
     fit-margin-right="0"
     fit-margin-left="0"
     fit-margin-top="0"
     units="px"
     showgrid="false"
     inkscape:document-rotation="0"
     inkscape:current-layer="text837"
     inkscape:document-units="px"
     inkscape:cy="55.564549"
     inkscape:cx="25.83631"
     inkscape:zoom="3.959798"
     inkscape:pageshadow="2"
     inkscape:pageopacity="0.0"
     borderopacity="1.0"
     bordercolor="#666666"
     pagecolor="#ffffff"
     id="base" />
  <metadata
     id="metadata5">
    <rdf:RDF>
      <cc:Work
         rdf:about="">
        <dc:format>image/svg+xml</dc:format>
        <dc:type
           rdf:resource="http://purl.org/dc/dcmitype/StillImage" />
        <dc:title></dc:title>
      </cc:Work>
    </rdf:RDF>
  </metadata>
  <g
     id="layer1"
     inkscape:groupmode="layer"
     inkscape:label="Layer 1">
    <rect
       y="1.322915"
       x="1.322915"
       height="31.220837"
       width="31.220837"
       id="rect833"
       style="fill:#f9f9f9;stroke:#000000;stroke-width:2.64583" />
    <g
       style="font-style:normal;font-weight:normal;font-size:19.7556px;line-height:1.25;font-family:sans-serif;fill:#000000;fill-opacity:1;stroke:none;stroke-width:0.264583"
       id="text837"
       transform="scale(0.98095062,1.0194193)"
       aria-label="?">
      <path
         id="path839"
         style="font-style:normal;font-variant:normal;font-weight:bold;font-stretch:normal;font-size:19.7556px;font-family:sans-serif;-inkscape-font-specification:'sans-serif Bold';stroke-width:0.264583"
         d="m 22.104604,13.085045 q 0,0.974275 -0.289389,1.726686 -0.279742,0.742764 -0.800642,1.292603 -0.520899,0.549838 -1.254017,0.983921 -0.723472,0.434083 -1.639869,0.790996 v 2.199354 h -3.395494 v -3.2508 q 0.684886,-0.183279 1.234725,-0.376205 0.559485,-0.192926 1.167201,-0.627009 0.569131,-0.385851 0.887458,-0.897105 0.327974,-0.511253 0.327974,-1.157554 0,-0.964629 -0.627009,-1.369773 -0.617362,-0.414791 -1.745978,-0.414791 -0.694533,0 -1.572345,0.299035 -0.868166,0.299035 -1.591638,0.771703 H 12.41973 v -2.942118 q 0.617362,-0.2604496 1.900319,-0.540192 1.282956,-0.2893886 2.604498,-0.2893886 2.382633,0 3.781345,1.0514456 1.398712,1.051445 1.398712,2.749192 z M 18.390783,23.93712 H 14.493682 V 21.3905 h 3.897101 z" />
    </g>
  </g>
</svg>
