<?xml version="1.0" encoding="UTF-8" standalone="no"?>
<svg
   xmlns:dc="http://purl.org/dc/elements/1.1/"
   xmlns:cc="http://creativecommons.org/ns#"
   xmlns:rdf="http://www.w3.org/1999/02/22-rdf-syntax-ns#"
   xmlns:svg="http://www.w3.org/2000/svg"
   xmlns="http://www.w3.org/2000/svg"
   xmlns:sodipodi="http://sodipodi.sourceforge.net/DTD/sodipodi-0.dtd"
   xmlns:inkscape="http://www.inkscape.org/namespaces/inkscape"
   inkscape:version="1.0 (4035a4fb49, 2020-05-01)"
   sodipodi:docname="UNOLogo-horiz.svg"
   viewBox="0 0 770.66669 189.33333"
   height="189.33333"
   width="770.66669"
   xml:space="preserve"
   id="svg2"
   version="1.1"><metadata
     id="metadata8"><rdf:RDF><cc:Work
         rdf:about=""><dc:format>image/svg+xml</dc:format><dc:type
           rdf:resource="http://purl.org/dc/dcmitype/StillImage" /><dc:title></dc:title></cc:Work></rdf:RDF></metadata><defs
     id="defs6"><clipPath
       id="clipPath18"
       clipPathUnits="userSpaceOnUse"><path
         id="path16"
         d="M 0,142 H 578 V 0 H 0 Z" /></clipPath></defs><sodipodi:namedview
     inkscape:current-layer="g10"
     inkscape:window-maximized="0"
     inkscape:window-y="0"
     inkscape:window-x="0"
     inkscape:cy="94.666664"
     inkscape:cx="385.33334"
     inkscape:zoom="1.4532872"
     showgrid="false"
     id="namedview4"
     inkscape:window-height="480"
     inkscape:window-width="802"
     inkscape:pageshadow="2"
     inkscape:pageopacity="0"
     guidetolerance="10"
     gridtolerance="10"
     objecttolerance="10"
     borderopacity="1"
     bordercolor="#666666"
     pagecolor="#ffffff" /><g
     transform="matrix(1.3333333,0,0,-1.3333333,0,189.33333)"
     inkscape:label="UNOLogo-horiz"
     inkscape:groupmode="layer"
     id="g10"><g
       id="g12"><g
         clip-path="url(#clipPath18)"
         id="g14"><g
           transform="translate(133.7734,97.6079)"
           id="g20"><path
             id="path22"
             style="fill:#ffffff;fill-opacity:1;fill-rule:nonzero;stroke:none"
             d="m 0,0 c -7.164,15.981 -24.15,30.213 -40.641,35.002 -26.047,8.126 -53.922,-0.284 -71.439,-21.077 -15.785,-18.32 -20.276,-46.105 -10.659,-68.74 6.738,-17.552 24.714,-33.79 42.769,-38.614 27.461,-8.166 56.156,1.753 73.387,24.413 C 7.95,-50.657 10.827,-21.117 0,0 m -67.899,-76.695 c 0.605,0.875 1.774,0.905 2.647,0.618 2.368,-0.869 3.213,-3.195 3.742,-5.284 0.376,0.553 0.034,1.715 -0.145,2.49 -1.663,3.473 0.122,7.038 1.05,10.266 1.443,-3.944 2.198,-8.768 0.508,-12.801 l 0.082,-0.152 c 0.489,2.201 1.985,4.662 4.318,5.272 1.089,0.265 2.042,-0.179 2.532,-1.104 0.419,-1.082 0.223,-2.341 -0.458,-3.218 -0.384,-0.399 -0.848,-0.491 -1.316,-0.579 -0.095,0.698 0.585,1.419 -0.055,1.95 -0.564,0.688 -1.651,0.267 -2.269,-0.06 -0.922,-0.574 -1.518,-1.523 -1.887,-2.473 1.735,-1.082 -1.588,-2.187 1.494,-3.166 0.869,-0.209 1.401,0.274 1.854,0.913 l -0.002,0.077 0.314,0.007 c 0.254,-0.772 0.045,-1.64 -0.566,-2.203 -0.611,-0.562 -1.556,-0.511 -2.348,-0.143 -0.476,0.3 -0.878,0.841 -1.282,1.214 -0.451,-0.79 0.058,-2.103 -0.306,-3.051 l -0.666,-1.66 c -0.967,1.224 -1.102,3.094 -1.067,4.74 -0.678,-0.883 -1.822,-2.005 -3.245,-1.577 -0.631,0.143 -1.112,0.751 -1.287,1.374 -0.092,0.543 -0.03,1.094 0.19,1.571 0.553,-0.222 0.817,-1.23 1.525,-1.291 0.783,-0.058 1.483,0.122 1.855,0.832 -1.049,2.702 1.795,1.755 -0.192,4.135 -0.805,0.915 -2.074,1.588 -3.241,1.087 -0.69,-0.409 -0.974,-1.435 -0.408,-2.047 0.156,-0.072 0.156,-0.149 0.162,-0.306 -0.783,-0.02 -1.822,0.81 -2.079,1.666 -0.18,1.007 -0.14,2.1 0.546,2.903 m -29.548,33.279 0.84,0.016 6.242,-0.005 c 0.14,-3.729 0.097,-8.03 0.269,-11.465 0.431,-1.473 1.329,-2.772 2.755,-3.363 1.426,-0.742 3.221,-0.535 4.617,-0.027 5.556,2.959 3.103,9.889 3.749,14.827 2.505,0.011 4.639,-0.069 7.059,-0.005 0.045,-1.159 -0.106,-2.423 0.387,-3.428 2.538,1.79 4.996,3.575 8.196,3.818 3.904,0.343 7.471,-1.282 9.441,-4.67 l 0.398,-0.222 c 5.552,6.011 15.237,6.741 22.511,4.049 2.612,-1.025 5.88,-3.203 6.74,-6.07 1.252,-2.857 0.242,-5.931 -1.343,-8.242 -5.173,-5.452 -13.603,-6.309 -20.768,-4.704 -2.216,0.723 -4.432,1.755 -6.279,3.503 -0.688,-0.646 -0.417,-1.965 -0.464,-3.059 l 0.037,-0.802 -7.044,0.044 c -0.319,4.567 1.732,12.377 -3.164,14.86 -1.343,0.591 -2.906,0.469 -4.302,0.04 -5.881,-2.737 -3.498,-9.777 -3.987,-14.944 -2.273,0.021 -4.718,0.021 -7.156,0.01 0.092,1.378 -0.102,2.355 -0.003,3.784 -1.386,-0.663 -2.827,-2.042 -4.295,-2.708 -2.545,-1.396 -6.374,-1.657 -9.139,-0.558 -7.6,2.62 -4.759,16.388 -5.297,19.321 M 3.241,-27.027 c -0.147,-0.472 -0.362,-1.025 -0.825,-1.348 -2.291,0.719 -4.943,0.413 -7.284,0.037 -1.66,0.581 -3.166,1.475 -4.973,1.583 -0.963,0.835 -0.3,2.335 -0.566,3.502 -1.75,1.204 -5.395,-0.302 -5.634,2.892 -0.646,0.767 -1.738,0.424 -2.603,0.635 -2.059,0.805 -4.305,0.117 -6.508,0.372 -1.651,0.426 -3.378,0.456 -5.173,0.486 0.84,0.648 2.685,1.712 2.341,3.031 -0.327,0.461 -0.578,1.079 -0.514,1.625 1.309,0.818 2.683,2.027 2.561,3.665 2.809,0.389 1.647,-3.079 3.557,-4.121 0.802,-0.837 1.917,-1.356 2.943,-1.64 -0.253,0.693 -0.361,1.707 -0.847,2.4 -2.313,1.421 -0.549,5.687 -4.153,5.904 -0.868,0.054 -1.398,-0.666 -2.089,-0.997 -0.895,1.226 -2.849,1.176 -3.049,2.809 -0.965,0.757 -0.917,2.006 -1.57,2.929 -0.432,1.473 2.019,3.57 -0.504,4.048 0.065,0.706 0.671,1.346 0.18,2.037 -0.322,0.384 -0.875,0.678 -1.337,0.436 -0.917,-0.887 -0.104,-2.114 -0.86,-2.996 -0.705,-0.02 -0.757,-1.035 -1.54,-0.977 -0.347,1.161 -1.561,2.689 -0.254,3.664 0.606,0.64 1.298,1.204 1.513,1.994 -1.486,-0.197 -3.993,-0.187 -4.171,-2.146 l -0.715,0.294 c -0.207,-0.945 -1.378,-1.054 -1.83,-1.844 -0.616,-0.33 -1.553,-0.514 -1.366,-1.447 l 0.571,-0.842 c -0.78,-0.257 -0.758,-1.114 -0.967,-1.748 0.094,-0.855 0.513,-1.625 1.226,-2.153 -0.284,-1.18 -0.322,-2.511 -1.969,-2.242 -0.748,-1.503 -2.677,-2.415 -2.229,-4.434 0.03,-1.174 0.302,-2.57 1.494,-3.243 0.78,0.099 0.598,0.957 0.431,1.498 -1.11,0.518 -0.289,1.947 -0.235,2.804 l 0.307,0.245 c 1.419,-0.274 2.832,-0.394 4.25,-0.823 0.023,-0.783 -0.67,-1.269 -1.373,-1.289 0.276,-1.475 1.568,-0.189 2.229,-1.186 0.932,0.179 0.51,1.106 1.209,1.515 1.173,-0.279 2.36,-0.484 3.684,-0.292 0.439,-1.707 1.408,-2.928 2.543,-4.307 -0.681,-0.875 -2.005,-1.07 -2.763,-2.027 -3.901,-0.496 -8.161,0.716 -11.315,-1.323 -0.979,-1.434 -3.544,-2.05 -3.178,-4.069 -0.529,-0.64 -1.628,-0.673 -1.678,-1.61 1.09,-2.705 -2.607,-1.944 -2.946,-3.831 -0.623,-0.173 -1.563,-0.04 -1.62,-0.823 0.162,-0.23 0.092,-0.543 0.099,-0.858 l -1.231,-0.738 c -0.516,1.626 -0.023,3.675 -0.307,5.382 -0.234,2.965 -0.177,6.562 -0.327,9.291 0.836,0.808 -0.663,1.391 -0.685,2.172 -0.486,4.105 -2.064,11.923 -2.73,16.931 -0.331,2.455 -0.249,6.501 -0.249,6.501 l -0.396,-0.008 c 0,0 0.08,-3.958 -0.167,-6.483 l -2.787,-17.348 c -0.466,-0.17 -0.611,-0.643 -1.072,-1.045 0.409,-1.552 0.321,-3.195 0.289,-4.835 -0.157,0.767 -1.867,1.535 -1.877,2.485 -0.01,0.603 0.01,1.264 0.01,1.264 l 0.92,0.03 -0.028,0.471 -0.924,-0.01 -0.011,1.236 -0.478,0.005 0.02,-1.239 h -0.865 l 0.002,-0.473 0.838,-0.005 c 0,0 0.035,-0.167 0.027,-1.177 -0.009,-1.012 -1.914,-2.665 -1.914,-2.665 -0.043,1.483 -0.197,3.627 0.548,5.053 0.06,0.629 -0.715,0.295 -0.733,0.92 -0.566,0.765 0.741,1.737 -0.453,2.331 l -4.854,-0.053 0.1,10.787 c 0.224,0.319 0.456,0.638 0.362,1.102 -0.327,0.616 -0.898,1.304 -1.758,1.284 -0.848,2.318 -0.618,5.526 -0.366,7.959 l -1.115,0.439 c -0.793,6.153 -2.543,12.497 -2.597,18.866 l 0.64,-0.005 0.013,0.284 -0.646,-0.005 -0.023,0.895 h -0.271 v -0.915 l -0.71,-0.003 0.012,-0.249 h 0.713 c -0.299,-6.416 -2.074,-12.596 -3.241,-18.644 -0.548,-0.092 -1.563,-0.199 -1.226,-1.047 0.535,-2.331 0.057,-4.923 -0.122,-7.04 -0.055,-0.782 -1.314,-0.423 -1.209,-1.358 l -0.232,-0.242 c 0.117,-1.401 -1.02,-2.764 -0.128,-3.986 l -0.253,-7.902 c -1.329,-0.112 -3.356,-0.324 -4.695,-0.045 -0.765,-0.883 0.304,-2.652 -1.092,-3.238 0.663,-1.309 0.591,-3.34 0.624,-5.07 -1.154,0.899 -1.822,1.443 -1.92,2.457 -0.069,0.689 -0.04,1.289 -0.04,1.289 l 0.915,0.005 -0.002,0.461 -0.878,0.015 0.013,1.192 -0.499,0.022 -0.015,-1.201 -0.93,-0.018 0.018,-0.466 0.927,-0.025 c 0,0 -0.015,-0.536 0,-1.261 -0.177,-0.918 -0.748,-1.521 -2.376,-2.51 0.195,1.49 -0.334,3.662 0.566,5.172 -0.408,0.613 -1.044,0.83 -1.45,1.444 -0.449,4.514 -1.469,11.509 -1.908,16.604 -0.303,3.53 -0.119,6.232 -0.119,6.232 l -0.509,0.005 -0.112,-6.234 -4.308,-17.109 c -0.062,-0.548 -1.308,-0.817 -0.583,-1.498 -0.03,-4.689 -0.997,-9.405 -0.867,-14.164 -1.576,0.264 -2.226,-1.625 -3.872,-1.59 -1.076,-0.736 -2.335,-0.459 -3.589,-0.411 -0.1,0.857 -1.042,0.83 -1.601,1.206 -1.458,-0.978 -2.882,-0.312 -4.534,-0.122 -0.783,-0.023 -1.127,1.218 -2.047,0.491 -1.087,-0.265 -2.458,-1.787 -3.437,-0.327 l -0.322,0.304 c -0.992,25.056 13.608,49.516 36.57,59.983 21.777,10.903 50.941,6.693 68.984,-9.383 C -12.1,13.349 -6.987,6.454 -3.268,-0.87 0.551,-8.815 3.057,-17.42 3.241,-27.027 m -37.38,24.462 c -0.317,0.152 -0.858,-0.022 -0.868,0.369 l 0.771,0.334 c 0.162,-0.152 0.009,-0.469 0.097,-0.703 m -0.197,-1.488 -0.147,-0.239 -0.17,0.465 z m -4.462,3.006 c 0.247,-0.541 -0.519,-1.03 -0.9,-1.354 -0.237,0.073 -0.553,0.142 -0.641,0.449 -0.177,0.932 0.913,1.122 1.541,0.905 m -1.356,-1.992 c -0.456,-0.404 -0.267,-1.805 -1.062,-1.279 -0.796,0.524 -0.823,1.541 -0.374,2.254 l 0.461,0.409 c 0.474,-0.225 0.576,-1.005 0.975,-1.384 m 1.633,-8.239 c 0.159,-0.072 0.084,-0.231 0.092,-0.389 -0.075,-0.082 -0.15,-0.239 -0.386,-0.166 z m -4.218,2.546 c 0.07,0.391 0.7,0.331 0.86,0.099 z m -5.265,-48.279 c 0.267,-1.087 0.765,-2.169 1.875,-2.685 4.347,-1.523 8.757,0.549 12.042,3.375 2.134,2.087 3.946,4.558 3.082,7.661 -2.546,4.228 -8.671,2.035 -11.745,-0.083 -2.844,-1.872 -5.426,-4.756 -5.254,-8.268" /></g><g
           transform="translate(203.9619,20.6904)"
           id="g24"><path
             id="path26"
             style="fill:#ffffff;fill-opacity:1;fill-rule:nonzero;stroke:none"
             d="m 0,0 h -4.24 l -27.536,33.933 h -0.14 V 19.544 c 0,-7.305 0.422,-11.133 0.698,-13.282 0.342,-2.436 2.087,-3.34 6.676,-3.55 V 0.488 h -17.245 v 2.224 c 3.475,0.138 5.145,1.114 5.496,3.55 0.275,2.149 0.693,5.977 0.693,13.282 v 13.763 c 0,4.444 0,6.122 -1.256,7.787 -1.319,1.671 -3.054,2.154 -5.905,2.361 v 2.231 h 12.097 l 26.833,-31.29 h 0.147 v 12.232 c 0,7.305 -0.423,11.123 -0.695,13.284 -0.352,2.431 -2.092,3.336 -6.679,3.543 v 2.231 H 6.19 V 43.455 C 2.71,43.315 1.04,42.343 0.693,39.912 0.421,37.751 0,33.933 0,26.628 Z" /></g><g
           transform="translate(216.6499,49.6699)"
           id="g28"><path
             id="path30"
             style="fill:#ffffff;fill-opacity:1;fill-rule:nonzero;stroke:none"
             d="m 0,0 c 0,6.26 -0.469,6.664 -4.642,7.013 v 1.854 h 26.597 c 0.057,-0.979 0.348,-5.218 0.635,-9.036 l -2.089,-0.18 C 19.925,2.379 19.29,4.001 18.365,4.926 17.437,5.911 15.521,6.26 12.105,6.26 H 9.847 c -2.206,0 -2.319,0 -2.319,-2.031 V -7.646 h 4.226 c 4.991,0 5.158,0.29 5.741,4.867 h 2.086 v -12.686 h -2.086 c -0.583,4.576 -0.75,4.863 -5.741,4.863 H 7.528 v -9.096 c 0,-4.228 0.232,-5.442 1.451,-6.026 0.982,-0.463 2.543,-0.463 4.921,-0.463 2.665,0 5.335,0.349 6.601,1.74 0.99,1.04 1.925,3.011 2.844,5.794 l 2.087,-0.407 c -0.354,-2.261 -1.506,-8.171 -2.027,-9.732 H -5.217 v 1.853 C -0.469,-26.591 0,-26.187 0,-19.93 Z" /></g><g
           transform="translate(258.8862,56.6826)"
           id="g32"><path
             id="path34"
             style="fill:#ffffff;fill-opacity:1;fill-rule:nonzero;stroke:none"
             d="m 0,0 -2.087,-0.234 c -2.198,-0.285 -2.428,-0.748 -1.622,-3.648 l 6.321,-21.321 h 0.117 l 8.336,26.714 h 2.845 l 9.906,-26.714 h 0.115 c 2.149,7.356 4.522,16.978 5.332,20.454 0.868,3.646 0.578,4.285 -1.969,4.515 L 25.033,0 V 1.854 H 38.938 V 0 c -3.764,-0.464 -4.35,-0.693 -6.257,-6.202 -0.633,-1.795 -4.577,-14.021 -9.443,-30.009 h -3.069 l -9.737,25.955 H 10.318 L 1.745,-36.211 h -3.077 l -9.674,30.417 C -12.629,-0.639 -13.673,-0.35 -16.682,0 V 1.854 L 0,1.854 Z" /></g><g
           transform="translate(335.4795,66.1055)"
           id="g36"><path
             id="path38"
             style="fill:#ffffff;fill-opacity:1;fill-rule:nonzero;stroke:none"
             d="m 0,0 c 12.446,0 22.259,-9.458 22.259,-22.941 0,-14.678 -10.158,-24.338 -23.927,-24.338 -13.69,0 -22.734,10.22 -22.734,22.949 C -24.402,-13.143 -16.824,0 0,0 m -0.064,-44.156 c 7.156,0 12.025,6.123 12.025,18.988 0,13.835 -4.869,22.039 -13.766,22.039 -7.231,0 -12.307,-7.162 -12.307,-19.26 0,-12.097 4.797,-21.767 14.048,-21.767" /></g><g
           transform="translate(371.9414,29.7402)"
           id="g40"><path
             id="path42"
             style="fill:#ffffff;fill-opacity:1;fill-rule:nonzero;stroke:none"
             d="m 0,0 c 0,-6.257 0.467,-6.66 4.752,-7.01 v -1.851 h -16.856 v 1.851 c 4.399,0.35 4.871,0.753 4.871,7.01 v 19.931 c 0,6.256 -0.472,6.663 -4.64,7.011 v 1.856 H 3.829 c 4.921,0 8.047,-0.522 10.368,-1.973 2.316,-1.448 3.822,-4.168 3.822,-7.475 0,-5.036 -3.009,-8.107 -7.471,-9.792 0.809,-1.618 3.009,-5.557 4.691,-8.282 1.975,-3.073 3.54,-5.327 4.574,-6.55 1.167,-1.272 1.977,-1.91 3.418,-2.372 l -0.112,-1.742 -2.084,0.117 c -7.064,0.41 -9.037,1.91 -11.298,5.275 C 7.94,-1.331 6.319,2.029 4.812,5.158 3.944,7.013 3.137,7.474 1.337,7.474 H 0 Z m 0,9.62 h 1.678 c 2.379,0 3.946,0.401 5.34,1.506 2.253,1.792 3.121,4.517 3.121,7.356 0,5.739 -3.996,7.823 -7.244,7.823 C 0.175,26.305 0,26.13 0,23.81 Z" /></g><g
           transform="translate(409.1963,29.9707)"
           id="g44"><path
             id="path46"
             style="fill:#ffffff;fill-opacity:1;fill-rule:nonzero;stroke:none"
             d="m 0,0 c 0,-4.228 0.229,-5.504 1.451,-6.024 0.977,-0.407 2.545,-0.462 4.343,-0.462 2.266,0 4.931,0.346 6.259,1.795 0.923,1.099 1.857,2.957 2.782,5.736 L 16.922,0.641 C 16.567,-1.62 15.416,-7.53 14.893,-9.094 h -27.636 v 1.856 c 4.749,0.345 5.21,0.752 5.21,7.009 v 19.928 c 0,6.259 -0.461,6.665 -4.863,7.012 v 1.857 H 4.986 V 26.711 C 0.466,26.364 0,25.958 0,19.699 Z" /></g><g
           transform="translate(432.9502,49.6699)"
           id="g48"><path
             id="path50"
             style="fill:#ffffff;fill-opacity:1;fill-rule:nonzero;stroke:none"
             d="m 0,0 c 0,6.26 -0.461,6.664 -4.635,7.013 v 1.854 h 26.597 c 0.057,-0.979 0.349,-5.218 0.636,-9.036 l -2.084,-0.18 C 19.933,2.379 19.294,4.001 18.372,4.926 17.437,5.911 15.527,6.26 12.115,6.26 H 9.849 C 7.647,6.26 7.53,6.26 7.53,4.229 V -7.646 h 4.241 c 4.978,0 5.15,0.29 5.726,4.867 h 2.089 v -12.686 h -2.089 c -0.576,4.576 -0.748,4.863 -5.726,4.863 H 7.53 v -9.096 c 0,-4.228 0.238,-5.442 1.459,-6.026 0.977,-0.463 2.542,-0.463 4.918,-0.463 2.665,0 5.337,0.349 6.607,1.74 0.984,1.04 1.909,3.011 2.841,5.794 l 2.084,-0.407 c -0.351,-2.261 -1.503,-8.171 -2.034,-9.732 H -5.213 v 1.853 C -0.461,-26.591 0,-26.187 0,-19.93 Z" /></g><g
           transform="translate(480.7539,22.7314)"
           id="g52"><path
             id="path54"
             style="fill:#ffffff;fill-opacity:1;fill-rule:nonzero;stroke:none"
             d="M 0,0 1.506,0.231 C 3.652,0.526 3.937,1.159 2.954,3.647 2.198,5.559 1.1,8.575 0.229,10.717 h -10.255 c -0.688,-1.678 -1.446,-4.228 -2.202,-6.721 -0.867,-2.894 -0.75,-3.535 1.908,-3.824 L -8.867,0 V -1.854 H -21.959 V 0 c 3.47,0.404 4.23,0.693 6.259,5.908 L -4.001,35.689 -1.162,36.5 2.665,25.726 C 5.101,18.831 7.65,11.934 9.85,6.082 11.873,0.638 12.808,0.349 15.872,0 V -1.854 H 0 Z m -9.211,13.673 h 8.461 l -4.176,11.938 h -0.172 z" /></g><g
           transform="translate(533.0166,20.4707)"
           id="g56"><path
             id="path58"
             style="fill:#ffffff;fill-opacity:1;fill-rule:nonzero;stroke:none"
             d="m 0,0 h -3.535 l -22.944,28.273 h -0.115 V 16.28 c 0,-6.083 0.345,-9.273 0.574,-11.063 0.291,-2.031 1.745,-2.784 5.564,-2.956 V 0.406 h -14.368 v 1.855 c 2.898,0.117 4.29,0.925 4.576,2.956 0.242,1.79 0.584,4.98 0.584,11.063 v 11.472 c 0,3.712 0,5.096 -1.042,6.486 -1.109,1.394 -2.553,1.803 -4.926,1.972 v 1.857 h 10.078 L -3.186,11.992 h 0.118 v 10.196 c 0,6.085 -0.355,9.276 -0.583,11.071 -0.292,2.024 -1.734,2.782 -5.565,2.951 v 1.857 H 5.155 V 36.21 C 2.256,36.096 0.862,35.283 0.573,33.259 0.35,31.464 0,28.273 0,22.188 Z" /></g><g
           transform="translate(543.041,32.001)"
           id="g60"><path
             id="path62"
             style="fill:#ffffff;fill-opacity:1;fill-rule:nonzero;stroke:none"
             d="m 0,0 c 0.982,-3.188 4.285,-9.386 10.021,-9.386 3.824,0 5.97,2.84 5.97,6.143 0,3.941 -2.146,5.85 -6.549,7.76 L 8.281,5.043 c -4.868,2.142 -8.979,5.496 -8.979,11.006 0,6.199 4.813,11.357 12.863,11.357 1.737,0 3.592,-0.232 5.332,-0.812 0.925,-0.287 1.798,-0.519 2.49,-0.751 0.233,-2.089 0.636,-4.694 1.219,-8.174 l -2.089,-0.401 c -1.159,3.418 -2.896,7.531 -7.824,7.531 -3.53,0 -5.619,-2.551 -5.619,-5.796 0,-2.954 2.148,-5.038 6.316,-6.836 l 1.855,-0.81 C 18.484,9.386 22.77,6.319 22.77,0.06 c 0,-6.838 -5.395,-12.058 -13.736,-12.058 -2.141,0 -4.285,0.411 -5.85,0.935 -1.623,0.518 -2.72,0.979 -3.476,1.329 -0.466,1.503 -1.156,5.505 -1.797,8.983 z" /></g><g
           transform="translate(185.1392,103.0898)"
           id="g64"><path
             id="path66"
             style="fill:#ffffff;fill-opacity:1;fill-rule:nonzero;stroke:none"
             d="m 0,0 c -0.511,2.256 -0.932,3.428 -1.498,4.178 -0.755,1.13 -1.553,1.461 -5.076,1.461 h -3.33 v -23.103 c 0,-3.712 0.374,-4.183 4.836,-4.463 v -1.316 h -13.474 v 1.316 c 4.271,0.28 4.649,0.751 4.649,4.463 V 5.639 h -2.911 c -3.897,0 -4.839,-0.376 -5.449,-1.461 C -22.817,3.383 -23.196,2.067 -23.757,0 h -1.363 c 0.237,2.817 0.471,5.868 0.563,8.454 h 0.942 c 0.658,-1.082 1.269,-1.172 2.583,-1.172 h 18.547 c 1.266,0 1.648,0.281 2.393,1.172 h 0.987 c 0,-2.16 0.234,-5.592 0.469,-8.312 z" /></g><g
           transform="translate(221.248,109.0562)"
           id="g68"><path
             id="path70"
             style="fill:#ffffff;fill-opacity:1;fill-rule:nonzero;stroke:none"
             d="M 0,0 C -3.852,-0.329 -4.226,-0.566 -4.226,-4.462 V -23.43 c 0,-3.944 0.374,-4.183 4.179,-4.463 v -1.316 h -12.587 v 1.316 c 3.994,0.28 4.42,0.519 4.42,4.463 v 9.39 h -16.011 v -9.39 c 0,-3.899 0.376,-4.183 4.227,-4.463 v -1.316 h -12.354 v 1.316 c 3.757,0.28 4.131,0.519 4.131,4.463 v 18.968 c 0,3.941 -0.374,4.133 -4.223,4.462 v 1.316 h 12.162 V 0 c -3.567,-0.329 -3.943,-0.566 -3.943,-4.462 v -7.606 h 16.011 v 7.606 c 0,3.896 -0.374,4.133 -4.041,4.462 V 1.316 H 0 Z" /></g><g
           transform="translate(247.9673,87.2681)"
           id="g72"><path
             id="path74"
             style="fill:#ffffff;fill-opacity:1;fill-rule:nonzero;stroke:none"
             d="m 0,0 c -0.282,-1.553 -1.222,-5.96 -1.643,-7.419 h -22.635 v 1.314 c 4.273,0.326 4.649,0.705 4.649,4.507 v 18.691 c 0,4.225 -0.376,4.367 -4.043,4.694 v 1.317 h 20.947 c 0,-1.18 0.235,-4.368 0.379,-6.764 l -1.363,-0.234 c -0.427,1.972 -0.893,3.006 -1.501,4.039 -0.658,0.984 -1.93,1.315 -5.312,1.315 h -3.565 c -1.458,0 -1.551,-0.097 -1.551,-1.505 V 9.298 h 4.415 c 4.225,0 4.46,0.376 5.073,3.517 h 1.358 V 3.804 H -6.15 c -0.613,3.38 -0.942,3.662 -5.028,3.662 h -4.46 v -8.872 c 0,-2.209 0.282,-3.196 1.13,-3.807 0.887,-0.566 2.53,-0.613 4.878,-0.613 3.568,0 4.886,0.376 5.921,1.6 0.795,0.94 1.689,2.536 2.3,4.413 z" /></g><g
           transform="translate(291.959,109.0562)"
           id="g76"><path
             id="path78"
             style="fill:#ffffff;fill-opacity:1;fill-rule:nonzero;stroke:none"
             d="m 0,0 c -2.817,-0.19 -3.896,-0.848 -4.13,-2.775 -0.14,-1.264 -0.235,-3.286 -0.235,-7.605 v -3.852 c 0,-5.539 -0.845,-9.53 -3.567,-12.394 -2.161,-2.256 -5.31,-3.241 -8.406,-3.241 -2.724,0 -5.444,0.658 -7.513,2.254 -2.817,2.163 -4.128,5.683 -4.128,11.177 v 11.689 c 0,4.226 -0.379,4.418 -4.091,4.747 v 1.316 h 12.162 V 0 c -3.709,-0.237 -4.083,-0.521 -4.083,-4.747 v -10.656 c 0,-7.559 3.002,-11.879 8.827,-11.879 6.763,0 8.872,5.634 8.872,13.379 v 3.523 c 0,4.319 -0.139,6.292 -0.326,7.753 C -6.9,-0.798 -7.885,-0.237 -11.173,0 V 1.316 L 0,1.316 Z" /></g><g
           transform="translate(326.002,109.0562)"
           id="g80"><path
             id="path82"
             style="fill:#ffffff;fill-opacity:1;fill-rule:nonzero;stroke:none"
             d="m 0,0 c -2.627,-0.143 -3.754,-0.753 -3.938,-2.82 -0.195,-1.408 -0.287,-3.519 -0.287,-7.887 V -29.63 h -1.459 l -19.994,24.607 h -0.097 v -11.791 c 0,-4.318 0.139,-6.572 0.281,-7.933 0.232,-2.395 1.313,-2.956 4.505,-3.146 v -1.316 h -11.126 v 1.316 c 2.722,0.145 3.896,0.751 4.131,3.054 0.139,1.453 0.281,3.707 0.281,8.025 v 10.335 c 0,3.425 -0.092,3.614 -0.942,4.739 -0.932,1.174 -1.969,1.55 -4.175,1.74 v 1.316 h 6.947 l 19.584,-23.575 h 0.137 v 11.552 c 0,4.32 -0.185,6.479 -0.329,7.795 C -6.708,-0.798 -7.84,-0.19 -11.08,0 V 1.316 H 0 Z" /></g><g
           transform="translate(328.2588,79.8481)"
           id="g84"><path
             id="path86"
             style="fill:#ffffff;fill-opacity:1;fill-rule:nonzero;stroke:none"
             d="m 0,0 v 1.313 c 3.852,0.282 4.225,0.566 4.225,4.555 v 18.783 c 0,3.992 -0.373,4.273 -4.225,4.557 v 1.314 H 12.441 V 29.208 C 8.595,28.924 8.214,28.643 8.214,24.651 V 5.868 c 0,-4.036 0.381,-4.273 4.227,-4.555 V 0 Z" /></g><g
           transform="translate(374.0869,109.0562)"
           id="g88"><path
             id="path90"
             style="fill:#ffffff;fill-opacity:1;fill-rule:nonzero;stroke:none"
             d="m 0,0 c -3.199,-0.374 -3.802,-0.798 -5.59,-5.023 -1.268,-3.057 -6.247,-14.982 -9.764,-24.699 h -1.458 c -3.149,8.59 -6.998,18.731 -9.719,25.539 -1.362,3.525 -2.115,3.901 -4.884,4.135 v 1.364 h 11.502 V 0 c -3.333,-0.374 -3.52,-0.703 -2.768,-2.775 1.217,-3.333 4.648,-12.441 7.798,-20.468 h 0.087 c 2.354,5.868 5.918,15.026 7.422,19.673 0.89,2.722 0.608,3.101 -3.191,3.57 V 1.316 L 0,1.316 Z" /></g><g
           transform="translate(399.8125,87.2681)"
           id="g92"><path
             id="path94"
             style="fill:#ffffff;fill-opacity:1;fill-rule:nonzero;stroke:none"
             d="m 0,0 c -0.279,-1.553 -1.22,-5.96 -1.644,-7.419 h -22.629 v 1.314 c 4.273,0.326 4.647,0.705 4.647,4.507 v 18.691 c 0,4.225 -0.374,4.367 -4.039,4.694 v 1.317 h 20.942 c 0,-1.18 0.235,-4.368 0.377,-6.764 L -3.71,16.106 c -0.421,1.972 -0.894,3.006 -1.503,4.039 -0.655,0.984 -1.925,1.315 -5.3,1.315 h -3.569 c -1.456,0 -1.556,-0.097 -1.556,-1.505 V 9.298 h 4.415 c 4.23,0 4.464,0.376 5.073,3.517 h 1.361 V 3.804 H -6.15 c -0.609,3.38 -0.943,3.662 -5.023,3.662 h -4.465 v -8.872 c 0,-2.209 0.282,-3.196 1.127,-3.807 0.895,-0.566 2.535,-0.613 4.883,-0.613 3.572,0 4.887,0.376 5.918,1.6 0.798,0.94 1.693,2.536 2.304,4.413 z" /></g><g
           transform="translate(429.6357,79.4727)"
           id="g96"><path
             id="path98"
             style="fill:#ffffff;fill-opacity:1;fill-rule:nonzero;stroke:none"
             d="m 0,0 c -0.568,0 -1.082,0 -1.646,0.045 -3.524,0.192 -5.499,1.221 -7.607,4.272 -1.643,2.304 -3.336,5.21 -4.742,7.516 -0.802,1.314 -1.595,1.875 -4.04,1.875 h -1.501 V 6.242 c 0,-3.989 0.421,-4.273 4.178,-4.552 V 0.376 h -12.35 V 1.69 c 3.85,0.279 4.275,0.563 4.275,4.552 V 25.12 c 0,3.994 -0.376,4.136 -4.043,4.462 v 1.316 h 11.652 c 3.423,0 5.723,-0.423 7.511,-1.597 1.875,-1.224 3.098,-3.331 3.098,-6.153 0,-4.033 -2.49,-6.528 -5.966,-8.026 0.798,-1.549 2.773,-4.697 4.181,-6.811 1.688,-2.443 2.628,-3.665 3.802,-4.884 1.268,-1.41 2.344,-1.922 3.383,-2.206 z m -17.28,15.261 c 2.387,0 3.941,0.376 5.113,1.314 1.834,1.405 2.587,3.29 2.587,5.825 0,5.068 -3.338,6.948 -6.907,6.948 -1.359,0 -2.159,-0.187 -2.535,-0.469 -0.328,-0.234 -0.514,-0.802 -0.514,-2.071 V 15.261 Z" /></g><g
           transform="translate(446.5303,103.2329)"
           id="g100"><path
             id="path102"
             style="fill:#ffffff;fill-opacity:1;fill-rule:nonzero;stroke:none"
             d="m 0,0 c -0.843,3.001 -2.062,6.244 -6.15,6.244 -3.612,0 -5.207,-2.63 -5.207,-5.167 0,-3.423 2.253,-5.023 5.955,-6.948 3.67,-1.879 8.127,-4.083 8.127,-9.343 0,-4.931 -4.176,-8.877 -10.428,-8.877 -1.922,0 -3.423,0.377 -4.6,0.705 -1.171,0.424 -1.879,0.753 -2.298,0.985 -0.374,0.987 -0.987,5.031 -1.271,7.279 l 1.363,0.33 c 0.756,-2.862 2.867,-7.609 7.7,-7.609 3.523,0 5.637,2.209 5.637,5.636 0,3.475 -2.583,5.118 -6.104,6.998 -3.002,1.598 -7.746,3.943 -7.746,9.251 0,4.504 3.612,8.356 9.674,8.356 2.16,0 4.128,-0.516 5.913,-1.077 C 0.75,5.07 0.992,3.238 1.363,0.281 Z" /></g><g
           transform="translate(451.5127,79.8481)"
           id="g104"><path
             id="path106"
             style="fill:#ffffff;fill-opacity:1;fill-rule:nonzero;stroke:none"
             d="m 0,0 v 1.313 c 3.852,0.282 4.223,0.566 4.223,4.555 v 18.783 c 0,3.992 -0.371,4.273 -4.223,4.557 v 1.314 H 12.439 V 29.208 C 8.59,28.924 8.211,28.643 8.211,24.651 V 5.868 c 0,-4.036 0.379,-4.273 4.228,-4.555 V 0 Z" /></g><g
           transform="translate(491.5117,103.0898)"
           id="g108"><path
             id="path110"
             style="fill:#ffffff;fill-opacity:1;fill-rule:nonzero;stroke:none"
             d="m 0,0 c -0.514,2.256 -0.939,3.428 -1.5,4.178 -0.753,1.13 -1.556,1.461 -5.068,1.461 h -3.338 v -23.103 c 0,-3.712 0.376,-4.183 4.839,-4.463 v -1.316 h -13.477 v 1.316 c 4.275,0.28 4.649,0.751 4.649,4.463 V 5.639 h -2.912 c -3.898,0 -4.839,-0.376 -5.446,-1.461 C -22.816,3.383 -23.19,2.067 -23.759,0 h -1.358 c 0.234,2.817 0.466,5.868 0.565,8.454 h 0.935 c 0.656,-1.082 1.266,-1.172 2.585,-1.172 h 18.545 c 1.268,0 1.647,0.281 2.397,1.172 h 0.986 c 0,-2.16 0.231,-5.592 0.468,-8.312 z" /></g><g
           transform="translate(523.9209,109.0562)"
           id="g112"><path
             id="path114"
             style="fill:#ffffff;fill-opacity:1;fill-rule:nonzero;stroke:none"
             d="m 0,0 c -3.243,-0.374 -3.762,-0.848 -5.595,-3.709 -2.111,-3.428 -3.709,-6.153 -5.96,-10.284 -0.61,-1.223 -0.755,-1.737 -0.755,-2.956 v -6.392 c 0,-3.941 0.376,-4.272 4.697,-4.552 v -1.316 H -20.9 v 1.316 c 4.177,0.28 4.601,0.564 4.601,4.552 v 6.25 c 0,0.935 -0.186,1.361 -0.984,2.769 -1.643,2.912 -3.333,5.961 -5.918,10.328 -1.877,3.196 -2.394,3.712 -5.218,3.994 v 1.316 h 11.228 V 0 c -3.332,-0.424 -3.241,-0.985 -2.346,-2.538 1.97,-3.756 4.27,-7.606 6.292,-11.128 1.735,3.101 4.27,7.7 5.584,10.562 1.082,2.351 0.94,2.73 -2.722,3.104 V 1.316 L 0,1.316 Z" /></g><g
           transform="translate(536.0723,86.6094)"
           id="g116"><path
             id="path118"
             style="fill:#ffffff;fill-opacity:1;fill-rule:nonzero;stroke:none"
             d="m 0,0 c 0,6.107 3.24,10.754 7.139,12.818 1.688,0.892 3.615,1.503 5.073,1.503 3.893,0 6.242,-2.672 6.242,-7.323 0,-4.039 -1.735,-8.641 -5.02,-11.363 C 11.407,-6.055 8.827,-7.324 6.197,-7.324 1.742,-7.324 0,-3.804 0,0 m 9.393,-5.167 c 2.535,1.082 5.115,6.062 5.115,12.07 0,3.804 -1.643,5.636 -3.799,5.636 -0.706,0 -1.267,-0.187 -1.787,-0.426 C 7.089,11.317 3.943,7.466 3.943,0.239 c 0,-3.477 1.456,-5.686 3.952,-5.686 0.555,0 1.027,0.095 1.498,0.28" /></g><g
           transform="translate(561.5176,100.0835)"
           id="g120"><path
             id="path122"
             style="fill:#ffffff;fill-opacity:1;fill-rule:nonzero;stroke:none"
             d="m 0,0 c 0.71,3.57 1.835,7.092 3.948,9.438 2.164,2.401 4.834,3.762 6.714,3.762 1.643,0 2.864,-1.179 2.819,-2.022 0,-0.703 -0.658,-1.548 -1.176,-1.922 C 11.928,8.972 11.462,8.924 11.136,9.301 10.144,10.331 9.158,10.944 8.172,10.944 6.438,10.944 5.028,8.69 3.617,0 H 8.925 L 7.939,-1.453 3.243,-1.924 C 2.396,-7.089 1.882,-9.856 0.848,-15.069 c -1.643,-8.079 -3.378,-11.599 -5.963,-14.276 -2.065,-2.204 -4.038,-2.959 -5.305,-2.959 -1.361,0 -2.957,0.939 -2.912,2.021 0,0.609 0.566,1.411 1.267,1.972 0.377,0.329 0.611,0.279 0.895,0 0.75,-0.708 2.111,-1.171 2.959,-1.171 0.795,0 1.545,0.371 2.014,0.94 0.616,0.702 1.742,2.671 3.288,11.783 1.127,6.434 1.742,10.328 2.493,14.934 H -4.268 L -4.41,-1.313 -3.001,0 Z" /></g></g></g></g></svg>
